<mxfile host="app.diagrams.net" modified="2024-05-23T19:19:14.836Z" agent="Mozilla/5.0 (Windows NT 10.0; Win64; x64) AppleWebKit/537.36 (KHTML, like Gecko) Chrome/125.0.0.0 Safari/537.36" etag="7mw7MzXhiid02AVAAHzM" version="24.3.1" type="device">
  <diagram name="Page-1" id="2YBvvXClWsGukQMizWep">
    <mxGraphModel dx="2390" dy="1230" grid="1" gridSize="10" guides="1" tooltips="1" connect="1" arrows="1" fold="1" page="1" pageScale="1" pageWidth="850" pageHeight="1100" math="0" shadow="0">
      <root>
        <mxCell id="0" />
        <mxCell id="1" parent="0" />
        <mxCell id="Z6Mt7gjXPMmhMuYFZUXy-4" value="" style="rounded=0;whiteSpace=wrap;html=1;fillColor=#d5e8d4;strokeColor=#82b366;" vertex="1" parent="1">
          <mxGeometry x="455" y="190" width="125" height="60" as="geometry" />
        </mxCell>
        <mxCell id="Z6Mt7gjXPMmhMuYFZUXy-1" value="Resume" style="whiteSpace=wrap;html=1;shape=mxgraph.basic.document;fontStyle=1;fontSize=21;" vertex="1" parent="1">
          <mxGeometry x="360" y="70" width="100" height="100" as="geometry" />
        </mxCell>
        <mxCell id="Z6Mt7gjXPMmhMuYFZUXy-16" style="edgeStyle=orthogonalEdgeStyle;rounded=0;orthogonalLoop=1;jettySize=auto;html=1;entryX=0.5;entryY=0;entryDx=0;entryDy=0;fillColor=#d5e8d4;strokeColor=#82b366;" edge="1" parent="1" source="Z6Mt7gjXPMmhMuYFZUXy-2" target="Z6Mt7gjXPMmhMuYFZUXy-14">
          <mxGeometry relative="1" as="geometry">
            <Array as="points">
              <mxPoint x="410" y="900" />
              <mxPoint x="280" y="900" />
            </Array>
          </mxGeometry>
        </mxCell>
        <mxCell id="Z6Mt7gjXPMmhMuYFZUXy-37" value="compare" style="edgeLabel;html=1;align=center;verticalAlign=middle;resizable=0;points=[];fontSize=15;" vertex="1" connectable="0" parent="Z6Mt7gjXPMmhMuYFZUXy-16">
          <mxGeometry x="0.08" y="3" relative="1" as="geometry">
            <mxPoint x="-97" y="-23" as="offset" />
          </mxGeometry>
        </mxCell>
        <mxCell id="Z6Mt7gjXPMmhMuYFZUXy-38" style="edgeStyle=orthogonalEdgeStyle;rounded=0;orthogonalLoop=1;jettySize=auto;html=1;fillColor=#d5e8d4;strokeColor=#82b366;" edge="1" parent="1" source="Z6Mt7gjXPMmhMuYFZUXy-2" target="Z6Mt7gjXPMmhMuYFZUXy-26">
          <mxGeometry relative="1" as="geometry">
            <mxPoint x="580" y="880" as="targetPoint" />
            <Array as="points">
              <mxPoint x="410" y="900" />
              <mxPoint x="1500" y="900" />
            </Array>
          </mxGeometry>
        </mxCell>
        <mxCell id="Z6Mt7gjXPMmhMuYFZUXy-2" value="" style="rounded=0;whiteSpace=wrap;html=1;strokeColor=#009900;" vertex="1" parent="1">
          <mxGeometry x="240" y="250" width="340" height="430" as="geometry" />
        </mxCell>
        <mxCell id="Z6Mt7gjXPMmhMuYFZUXy-3" value="Resume analysis" style="text;html=1;align=center;verticalAlign=middle;whiteSpace=wrap;rounded=0;fontSize=21;fontStyle=1" vertex="1" parent="1">
          <mxGeometry x="455" y="192.5" width="125" height="55" as="geometry" />
        </mxCell>
        <mxCell id="Z6Mt7gjXPMmhMuYFZUXy-5" value="" style="endArrow=classic;html=1;rounded=0;exitX=0.5;exitY=1;exitDx=0;exitDy=0;exitPerimeter=0;entryX=0.5;entryY=0;entryDx=0;entryDy=0;" edge="1" parent="1" source="Z6Mt7gjXPMmhMuYFZUXy-1" target="Z6Mt7gjXPMmhMuYFZUXy-2">
          <mxGeometry width="50" height="50" relative="1" as="geometry">
            <mxPoint x="400" y="280" as="sourcePoint" />
            <mxPoint x="410" y="130" as="targetPoint" />
          </mxGeometry>
        </mxCell>
        <mxCell id="Z6Mt7gjXPMmhMuYFZUXy-10" style="edgeStyle=orthogonalEdgeStyle;rounded=0;orthogonalLoop=1;jettySize=auto;html=1;exitX=0.5;exitY=1;exitDx=0;exitDy=0;entryX=0.5;entryY=0;entryDx=0;entryDy=0;" edge="1" parent="1" source="Z6Mt7gjXPMmhMuYFZUXy-7" target="Z6Mt7gjXPMmhMuYFZUXy-8">
          <mxGeometry relative="1" as="geometry" />
        </mxCell>
        <mxCell id="Z6Mt7gjXPMmhMuYFZUXy-7" value="Document parser" style="rounded=0;whiteSpace=wrap;html=1;" vertex="1" parent="1">
          <mxGeometry x="350" y="280" width="120" height="80" as="geometry" />
        </mxCell>
        <mxCell id="Z6Mt7gjXPMmhMuYFZUXy-11" style="edgeStyle=orthogonalEdgeStyle;rounded=0;orthogonalLoop=1;jettySize=auto;html=1;exitX=0.5;exitY=1;exitDx=0;exitDy=0;entryX=0.5;entryY=0;entryDx=0;entryDy=0;" edge="1" parent="1" source="Z6Mt7gjXPMmhMuYFZUXy-8" target="Z6Mt7gjXPMmhMuYFZUXy-9">
          <mxGeometry relative="1" as="geometry" />
        </mxCell>
        <mxCell id="Z6Mt7gjXPMmhMuYFZUXy-8" value="Preprocessing" style="rounded=0;whiteSpace=wrap;html=1;" vertex="1" parent="1">
          <mxGeometry x="350" y="380" width="120" height="80" as="geometry" />
        </mxCell>
        <mxCell id="Z6Mt7gjXPMmhMuYFZUXy-13" style="edgeStyle=orthogonalEdgeStyle;rounded=0;orthogonalLoop=1;jettySize=auto;html=1;exitX=0.5;exitY=1;exitDx=0;exitDy=0;entryX=0.5;entryY=0;entryDx=0;entryDy=0;" edge="1" parent="1" source="Z6Mt7gjXPMmhMuYFZUXy-9" target="Z6Mt7gjXPMmhMuYFZUXy-12">
          <mxGeometry relative="1" as="geometry" />
        </mxCell>
        <mxCell id="Z6Mt7gjXPMmhMuYFZUXy-9" value="Tokenizer" style="rounded=0;whiteSpace=wrap;html=1;" vertex="1" parent="1">
          <mxGeometry x="350" y="480" width="120" height="80" as="geometry" />
        </mxCell>
        <mxCell id="Z6Mt7gjXPMmhMuYFZUXy-12" value="Embedding" style="rounded=0;whiteSpace=wrap;html=1;" vertex="1" parent="1">
          <mxGeometry x="350" y="580" width="120" height="80" as="geometry" />
        </mxCell>
        <mxCell id="Z6Mt7gjXPMmhMuYFZUXy-14" value="" style="shape=datastore;whiteSpace=wrap;html=1;fillColor=#dae8fc;strokeColor=#6c8ebf;" vertex="1" parent="1">
          <mxGeometry x="230" y="1000" width="100" height="100" as="geometry" />
        </mxCell>
        <mxCell id="Z6Mt7gjXPMmhMuYFZUXy-44" style="edgeStyle=orthogonalEdgeStyle;rounded=0;orthogonalLoop=1;jettySize=auto;html=1;fillColor=#d5e8d4;strokeColor=#82b366;" edge="1" parent="1" source="Z6Mt7gjXPMmhMuYFZUXy-15">
          <mxGeometry relative="1" as="geometry">
            <mxPoint x="635" y="1360" as="targetPoint" />
            <Array as="points">
              <mxPoint x="635" y="1120" />
            </Array>
          </mxGeometry>
        </mxCell>
        <mxCell id="Z6Mt7gjXPMmhMuYFZUXy-46" value="Matches" style="edgeLabel;html=1;align=center;verticalAlign=middle;resizable=0;points=[];fontSize=15;" vertex="1" connectable="0" parent="Z6Mt7gjXPMmhMuYFZUXy-44">
          <mxGeometry x="0.0227" relative="1" as="geometry">
            <mxPoint x="-14" y="120" as="offset" />
          </mxGeometry>
        </mxCell>
        <mxCell id="Z6Mt7gjXPMmhMuYFZUXy-15" value="Resume Vector DB" style="text;html=1;align=center;verticalAlign=middle;whiteSpace=wrap;rounded=0;fontSize=21;fontStyle=1" vertex="1" parent="1">
          <mxGeometry x="220" y="1100" width="120" height="50" as="geometry" />
        </mxCell>
        <mxCell id="Z6Mt7gjXPMmhMuYFZUXy-28" style="edgeStyle=orthogonalEdgeStyle;rounded=0;orthogonalLoop=1;jettySize=auto;html=1;entryX=1;entryY=0.5;entryDx=0;entryDy=0;fillColor=#f8cecc;strokeColor=#b85450;" edge="1" parent="1" source="Z6Mt7gjXPMmhMuYFZUXy-19" target="Z6Mt7gjXPMmhMuYFZUXy-26">
          <mxGeometry relative="1" as="geometry" />
        </mxCell>
        <mxCell id="Z6Mt7gjXPMmhMuYFZUXy-41" value="&lt;font style=&quot;font-size: 15px;&quot;&gt;Store&lt;/font&gt;" style="edgeLabel;html=1;align=center;verticalAlign=middle;resizable=0;points=[];" vertex="1" connectable="0" parent="Z6Mt7gjXPMmhMuYFZUXy-28">
          <mxGeometry x="0.0588" relative="1" as="geometry">
            <mxPoint as="offset" />
          </mxGeometry>
        </mxCell>
        <mxCell id="Z6Mt7gjXPMmhMuYFZUXy-19" value="" style="rounded=0;whiteSpace=wrap;html=1;strokeColor=#CC0000;" vertex="1" parent="1">
          <mxGeometry x="690" y="250" width="300" height="430" as="geometry" />
        </mxCell>
        <mxCell id="Z6Mt7gjXPMmhMuYFZUXy-20" value="" style="rounded=0;whiteSpace=wrap;html=1;fillColor=#f8cecc;strokeColor=#b85450;" vertex="1" parent="1">
          <mxGeometry x="860" y="190" width="130" height="60" as="geometry" />
        </mxCell>
        <mxCell id="Z6Mt7gjXPMmhMuYFZUXy-21" value="Competency analysis" style="text;html=1;align=center;verticalAlign=middle;whiteSpace=wrap;rounded=0;fontSize=21;fontStyle=1" vertex="1" parent="1">
          <mxGeometry x="862.5" y="192.5" width="125" height="55" as="geometry" />
        </mxCell>
        <mxCell id="Z6Mt7gjXPMmhMuYFZUXy-25" style="edgeStyle=orthogonalEdgeStyle;rounded=0;orthogonalLoop=1;jettySize=auto;html=1;entryX=0.5;entryY=0;entryDx=0;entryDy=0;" edge="1" parent="1" source="Z6Mt7gjXPMmhMuYFZUXy-23" target="Z6Mt7gjXPMmhMuYFZUXy-19">
          <mxGeometry relative="1" as="geometry" />
        </mxCell>
        <mxCell id="Z6Mt7gjXPMmhMuYFZUXy-23" value="" style="shape=datastore;whiteSpace=wrap;html=1;" vertex="1" parent="1">
          <mxGeometry x="790" y="70" width="100" height="100" as="geometry" />
        </mxCell>
        <mxCell id="Z6Mt7gjXPMmhMuYFZUXy-24" value="Comp. DB" style="text;html=1;align=center;verticalAlign=middle;whiteSpace=wrap;rounded=0;fontSize=21;fontStyle=1" vertex="1" parent="1">
          <mxGeometry x="790" y="110" width="100" height="50" as="geometry" />
        </mxCell>
        <mxCell id="Z6Mt7gjXPMmhMuYFZUXy-26" value="" style="shape=datastore;whiteSpace=wrap;html=1;fillColor=#dae8fc;strokeColor=#6c8ebf;" vertex="1" parent="1">
          <mxGeometry x="1450" y="1380" width="100" height="100" as="geometry" />
        </mxCell>
        <mxCell id="Z6Mt7gjXPMmhMuYFZUXy-45" style="edgeStyle=orthogonalEdgeStyle;rounded=0;orthogonalLoop=1;jettySize=auto;html=1;exitX=-0.017;exitY=0.346;exitDx=0;exitDy=0;exitPerimeter=0;fillColor=#f8cecc;strokeColor=#b85450;entryX=0.47;entryY=0.006;entryDx=0;entryDy=0;entryPerimeter=0;" edge="1" parent="1" source="Z6Mt7gjXPMmhMuYFZUXy-26" target="Z6Mt7gjXPMmhMuYFZUXy-52">
          <mxGeometry relative="1" as="geometry">
            <mxPoint x="1440" y="1410" as="sourcePoint" />
            <mxPoint x="630" y="1330" as="targetPoint" />
            <Array as="points">
              <mxPoint x="1130" y="1415" />
              <mxPoint x="1130" y="1120" />
              <mxPoint x="635" y="1120" />
            </Array>
          </mxGeometry>
        </mxCell>
        <mxCell id="Z6Mt7gjXPMmhMuYFZUXy-69" style="edgeStyle=orthogonalEdgeStyle;rounded=0;orthogonalLoop=1;jettySize=auto;html=1;fillColor=#fff2cc;strokeColor=#d6b656;entryX=0.5;entryY=0;entryDx=0;entryDy=0;" edge="1" parent="1" source="Z6Mt7gjXPMmhMuYFZUXy-27" target="Z6Mt7gjXPMmhMuYFZUXy-70">
          <mxGeometry relative="1" as="geometry">
            <mxPoint x="1500" y="2490.0000000000005" as="targetPoint" />
            <Array as="points">
              <mxPoint x="1500" y="2350" />
              <mxPoint x="640" y="2350" />
            </Array>
          </mxGeometry>
        </mxCell>
        <mxCell id="Z6Mt7gjXPMmhMuYFZUXy-27" value="Competency Vector DB" style="text;html=1;align=center;verticalAlign=middle;whiteSpace=wrap;rounded=0;fontSize=21;fontStyle=1" vertex="1" parent="1">
          <mxGeometry x="1440" y="1480" width="120" height="50" as="geometry" />
        </mxCell>
        <mxCell id="Z6Mt7gjXPMmhMuYFZUXy-29" style="edgeStyle=orthogonalEdgeStyle;rounded=0;orthogonalLoop=1;jettySize=auto;html=1;exitX=0.5;exitY=1;exitDx=0;exitDy=0;entryX=0.5;entryY=0;entryDx=0;entryDy=0;" edge="1" parent="1" source="Z6Mt7gjXPMmhMuYFZUXy-30" target="Z6Mt7gjXPMmhMuYFZUXy-32">
          <mxGeometry relative="1" as="geometry" />
        </mxCell>
        <mxCell id="Z6Mt7gjXPMmhMuYFZUXy-30" value="DB parser" style="rounded=0;whiteSpace=wrap;html=1;" vertex="1" parent="1">
          <mxGeometry x="780" y="280" width="120" height="80" as="geometry" />
        </mxCell>
        <mxCell id="Z6Mt7gjXPMmhMuYFZUXy-31" style="edgeStyle=orthogonalEdgeStyle;rounded=0;orthogonalLoop=1;jettySize=auto;html=1;exitX=0.5;exitY=1;exitDx=0;exitDy=0;entryX=0.5;entryY=0;entryDx=0;entryDy=0;" edge="1" parent="1" source="Z6Mt7gjXPMmhMuYFZUXy-32" target="Z6Mt7gjXPMmhMuYFZUXy-34">
          <mxGeometry relative="1" as="geometry" />
        </mxCell>
        <mxCell id="Z6Mt7gjXPMmhMuYFZUXy-32" value="Preprocessing" style="rounded=0;whiteSpace=wrap;html=1;" vertex="1" parent="1">
          <mxGeometry x="780" y="380" width="120" height="80" as="geometry" />
        </mxCell>
        <mxCell id="Z6Mt7gjXPMmhMuYFZUXy-33" style="edgeStyle=orthogonalEdgeStyle;rounded=0;orthogonalLoop=1;jettySize=auto;html=1;exitX=0.5;exitY=1;exitDx=0;exitDy=0;entryX=0.5;entryY=0;entryDx=0;entryDy=0;" edge="1" parent="1" source="Z6Mt7gjXPMmhMuYFZUXy-34" target="Z6Mt7gjXPMmhMuYFZUXy-35">
          <mxGeometry relative="1" as="geometry" />
        </mxCell>
        <mxCell id="Z6Mt7gjXPMmhMuYFZUXy-34" value="Tokenizer" style="rounded=0;whiteSpace=wrap;html=1;" vertex="1" parent="1">
          <mxGeometry x="780" y="480" width="120" height="80" as="geometry" />
        </mxCell>
        <mxCell id="Z6Mt7gjXPMmhMuYFZUXy-35" value="Embedding" style="rounded=0;whiteSpace=wrap;html=1;" vertex="1" parent="1">
          <mxGeometry x="780" y="580" width="120" height="80" as="geometry" />
        </mxCell>
        <mxCell id="Z6Mt7gjXPMmhMuYFZUXy-39" value="compare" style="edgeLabel;html=1;align=center;verticalAlign=middle;resizable=0;points=[];fontSize=15;" vertex="1" connectable="0" parent="1">
          <mxGeometry x="300" y="890" as="geometry">
            <mxPoint x="365" y="-10" as="offset" />
          </mxGeometry>
        </mxCell>
        <mxCell id="Z6Mt7gjXPMmhMuYFZUXy-47" style="edgeStyle=orthogonalEdgeStyle;rounded=0;orthogonalLoop=1;jettySize=auto;html=1;entryX=0;entryY=0.5;entryDx=0;entryDy=0;exitX=0;exitY=0.5;exitDx=0;exitDy=0;exitPerimeter=0;" edge="1" parent="1" source="Z6Mt7gjXPMmhMuYFZUXy-52" target="Z6Mt7gjXPMmhMuYFZUXy-14">
          <mxGeometry relative="1" as="geometry">
            <mxPoint x="540" y="1410" as="sourcePoint" />
            <Array as="points">
              <mxPoint x="110" y="1445" />
              <mxPoint x="110" y="1050" />
            </Array>
          </mxGeometry>
        </mxCell>
        <mxCell id="Z6Mt7gjXPMmhMuYFZUXy-48" value="matches + resume" style="edgeLabel;html=1;align=center;verticalAlign=middle;resizable=0;points=[];fontSize=15;" vertex="1" connectable="0" parent="Z6Mt7gjXPMmhMuYFZUXy-47">
          <mxGeometry x="-0.3224" y="-4" relative="1" as="geometry">
            <mxPoint x="70" y="-11" as="offset" />
          </mxGeometry>
        </mxCell>
        <mxCell id="Z6Mt7gjXPMmhMuYFZUXy-53" style="edgeStyle=orthogonalEdgeStyle;rounded=0;orthogonalLoop=1;jettySize=auto;html=1;" edge="1" parent="1" source="Z6Mt7gjXPMmhMuYFZUXy-52">
          <mxGeometry relative="1" as="geometry">
            <mxPoint x="640" y="1650" as="targetPoint" />
          </mxGeometry>
        </mxCell>
        <mxCell id="Z6Mt7gjXPMmhMuYFZUXy-52" value="&lt;div style=&quot;&quot;&gt;&lt;span style=&quot;color: rgb(51, 51, 51); font-size: 21px; font-weight: 700;&quot;&gt;Report:&lt;/span&gt;&lt;/div&gt;&lt;div style=&quot;&quot;&gt;&lt;span style=&quot;color: rgb(51, 51, 51); font-size: 21px; font-weight: 700;&quot;&gt;&lt;br&gt;&lt;/span&gt;&lt;/div&gt;&lt;span style=&quot;color: rgb(51, 51, 51); font-size: 21px; font-weight: 700;&quot;&gt;&lt;div style=&quot;text-align: left;&quot;&gt;&lt;span style=&quot;background-color: initial;&quot;&gt;&amp;nbsp;General&amp;nbsp; &amp;nbsp;competencies +&amp;nbsp; &amp;nbsp;relevant fields&lt;/span&gt;&lt;/div&gt;&lt;/span&gt;" style="whiteSpace=wrap;html=1;shape=mxgraph.basic.document" vertex="1" parent="1">
          <mxGeometry x="550" y="1350" width="180" height="190" as="geometry" />
        </mxCell>
        <mxCell id="Z6Mt7gjXPMmhMuYFZUXy-55" value="" style="rounded=0;whiteSpace=wrap;html=1;fillColor=#e1d5e7;strokeColor=#9673a6;" vertex="1" parent="1">
          <mxGeometry x="660" y="1590" width="150" height="60" as="geometry" />
        </mxCell>
        <mxCell id="Z6Mt7gjXPMmhMuYFZUXy-68" style="edgeStyle=orthogonalEdgeStyle;rounded=0;orthogonalLoop=1;jettySize=auto;html=1;exitX=0.5;exitY=1;exitDx=0;exitDy=0;fillColor=#e1d5e7;strokeColor=#9673a6;" edge="1" parent="1" source="Z6Mt7gjXPMmhMuYFZUXy-56">
          <mxGeometry relative="1" as="geometry">
            <mxPoint x="1450" y="1450" as="targetPoint" />
            <Array as="points">
              <mxPoint x="640" y="2260" />
              <mxPoint x="1130" y="2260" />
              <mxPoint x="1130" y="1450" />
            </Array>
          </mxGeometry>
        </mxCell>
        <mxCell id="Z6Mt7gjXPMmhMuYFZUXy-77" value="Compare" style="edgeLabel;html=1;align=center;verticalAlign=middle;resizable=0;points=[];fontSize=15;" vertex="1" connectable="0" parent="Z6Mt7gjXPMmhMuYFZUXy-68">
          <mxGeometry x="0.0437" y="2" relative="1" as="geometry">
            <mxPoint as="offset" />
          </mxGeometry>
        </mxCell>
        <mxCell id="Z6Mt7gjXPMmhMuYFZUXy-76" style="edgeStyle=orthogonalEdgeStyle;rounded=0;orthogonalLoop=1;jettySize=auto;html=1;fillColor=#e1d5e7;strokeColor=#9673a6;" edge="1" parent="1" source="Z6Mt7gjXPMmhMuYFZUXy-56" target="Z6Mt7gjXPMmhMuYFZUXy-74">
          <mxGeometry relative="1" as="geometry">
            <Array as="points">
              <mxPoint x="640" y="2260" />
              <mxPoint x="260" y="2260" />
            </Array>
          </mxGeometry>
        </mxCell>
        <mxCell id="Z6Mt7gjXPMmhMuYFZUXy-78" value="Store" style="edgeLabel;html=1;align=center;verticalAlign=middle;resizable=0;points=[];fontSize=15;" vertex="1" connectable="0" parent="Z6Mt7gjXPMmhMuYFZUXy-76">
          <mxGeometry x="0.0267" y="-2" relative="1" as="geometry">
            <mxPoint as="offset" />
          </mxGeometry>
        </mxCell>
        <mxCell id="Z6Mt7gjXPMmhMuYFZUXy-56" value="" style="rounded=0;whiteSpace=wrap;html=1;strokeColor=#9673a6;fillColor=#FFFFFF;" vertex="1" parent="1">
          <mxGeometry x="470" y="1650" width="340" height="550" as="geometry" />
        </mxCell>
        <mxCell id="Z6Mt7gjXPMmhMuYFZUXy-57" value="Job querying and analysis" style="text;html=1;align=center;verticalAlign=middle;whiteSpace=wrap;rounded=0;fontSize=21;fontStyle=1" vertex="1" parent="1">
          <mxGeometry x="660" y="1592.5" width="150" height="55" as="geometry" />
        </mxCell>
        <mxCell id="Z6Mt7gjXPMmhMuYFZUXy-58" style="edgeStyle=orthogonalEdgeStyle;rounded=0;orthogonalLoop=1;jettySize=auto;html=1;exitX=0.5;exitY=1;exitDx=0;exitDy=0;entryX=0.5;entryY=0;entryDx=0;entryDy=0;" edge="1" parent="1" source="Z6Mt7gjXPMmhMuYFZUXy-59" target="Z6Mt7gjXPMmhMuYFZUXy-61">
          <mxGeometry relative="1" as="geometry" />
        </mxCell>
        <mxCell id="Z6Mt7gjXPMmhMuYFZUXy-59" value="Document parser" style="rounded=0;whiteSpace=wrap;html=1;" vertex="1" parent="1">
          <mxGeometry x="580" y="1800" width="120" height="80" as="geometry" />
        </mxCell>
        <mxCell id="Z6Mt7gjXPMmhMuYFZUXy-60" style="edgeStyle=orthogonalEdgeStyle;rounded=0;orthogonalLoop=1;jettySize=auto;html=1;exitX=0.5;exitY=1;exitDx=0;exitDy=0;entryX=0.5;entryY=0;entryDx=0;entryDy=0;" edge="1" parent="1" source="Z6Mt7gjXPMmhMuYFZUXy-61" target="Z6Mt7gjXPMmhMuYFZUXy-63">
          <mxGeometry relative="1" as="geometry" />
        </mxCell>
        <mxCell id="Z6Mt7gjXPMmhMuYFZUXy-61" value="Preprocessing" style="rounded=0;whiteSpace=wrap;html=1;" vertex="1" parent="1">
          <mxGeometry x="580" y="1900" width="120" height="80" as="geometry" />
        </mxCell>
        <mxCell id="Z6Mt7gjXPMmhMuYFZUXy-62" style="edgeStyle=orthogonalEdgeStyle;rounded=0;orthogonalLoop=1;jettySize=auto;html=1;exitX=0.5;exitY=1;exitDx=0;exitDy=0;entryX=0.5;entryY=0;entryDx=0;entryDy=0;" edge="1" parent="1" source="Z6Mt7gjXPMmhMuYFZUXy-63" target="Z6Mt7gjXPMmhMuYFZUXy-64">
          <mxGeometry relative="1" as="geometry" />
        </mxCell>
        <mxCell id="Z6Mt7gjXPMmhMuYFZUXy-63" value="Tokenizer" style="rounded=0;whiteSpace=wrap;html=1;" vertex="1" parent="1">
          <mxGeometry x="580" y="2000" width="120" height="80" as="geometry" />
        </mxCell>
        <mxCell id="Z6Mt7gjXPMmhMuYFZUXy-64" value="Embedding" style="rounded=0;whiteSpace=wrap;html=1;" vertex="1" parent="1">
          <mxGeometry x="580" y="2100" width="120" height="80" as="geometry" />
        </mxCell>
        <mxCell id="Z6Mt7gjXPMmhMuYFZUXy-66" style="edgeStyle=orthogonalEdgeStyle;rounded=0;orthogonalLoop=1;jettySize=auto;html=1;entryX=0.5;entryY=0;entryDx=0;entryDy=0;" edge="1" parent="1" source="Z6Mt7gjXPMmhMuYFZUXy-65" target="Z6Mt7gjXPMmhMuYFZUXy-59">
          <mxGeometry relative="1" as="geometry" />
        </mxCell>
        <mxCell id="Z6Mt7gjXPMmhMuYFZUXy-65" value="Google jobs query" style="rounded=0;whiteSpace=wrap;html=1;" vertex="1" parent="1">
          <mxGeometry x="580" y="1680" width="120" height="80" as="geometry" />
        </mxCell>
        <mxCell id="Z6Mt7gjXPMmhMuYFZUXy-70" value="Best matches" style="swimlane;fontStyle=0;childLayout=stackLayout;horizontal=1;startSize=26;fillColor=#fff2cc;horizontalStack=0;resizeParent=1;resizeParentMax=0;resizeLast=0;collapsible=1;marginBottom=0;html=1;strokeColor=#d6b656;" vertex="1" parent="1">
          <mxGeometry x="570" y="2460" width="140" height="104" as="geometry" />
        </mxCell>
        <mxCell id="Z6Mt7gjXPMmhMuYFZUXy-71" value="URL 1" style="text;strokeColor=none;fillColor=none;align=left;verticalAlign=top;spacingLeft=4;spacingRight=4;overflow=hidden;rotatable=0;points=[[0,0.5],[1,0.5]];portConstraint=eastwest;whiteSpace=wrap;html=1;" vertex="1" parent="Z6Mt7gjXPMmhMuYFZUXy-70">
          <mxGeometry y="26" width="140" height="26" as="geometry" />
        </mxCell>
        <mxCell id="Z6Mt7gjXPMmhMuYFZUXy-72" value="URL 2" style="text;strokeColor=none;fillColor=none;align=left;verticalAlign=top;spacingLeft=4;spacingRight=4;overflow=hidden;rotatable=0;points=[[0,0.5],[1,0.5]];portConstraint=eastwest;whiteSpace=wrap;html=1;" vertex="1" parent="Z6Mt7gjXPMmhMuYFZUXy-70">
          <mxGeometry y="52" width="140" height="26" as="geometry" />
        </mxCell>
        <mxCell id="Z6Mt7gjXPMmhMuYFZUXy-73" value="URL 3" style="text;strokeColor=none;fillColor=none;align=left;verticalAlign=top;spacingLeft=4;spacingRight=4;overflow=hidden;rotatable=0;points=[[0,0.5],[1,0.5]];portConstraint=eastwest;whiteSpace=wrap;html=1;" vertex="1" parent="Z6Mt7gjXPMmhMuYFZUXy-70">
          <mxGeometry y="78" width="140" height="26" as="geometry" />
        </mxCell>
        <mxCell id="Z6Mt7gjXPMmhMuYFZUXy-74" value="" style="shape=datastore;whiteSpace=wrap;html=1;fillColor=#dae8fc;strokeColor=#6c8ebf;" vertex="1" parent="1">
          <mxGeometry x="210" y="2320" width="100" height="100" as="geometry" />
        </mxCell>
        <mxCell id="Z6Mt7gjXPMmhMuYFZUXy-75" value="Job offer Vector DB" style="text;html=1;align=center;verticalAlign=middle;whiteSpace=wrap;rounded=0;fontSize=21;fontStyle=1" vertex="1" parent="1">
          <mxGeometry x="200" y="2420" width="120" height="50" as="geometry" />
        </mxCell>
      </root>
    </mxGraphModel>
  </diagram>
</mxfile>
